# xmcd
#
# Track frame offsets:
#	150
#	15365
#	31884
#	51199
#	71916
#	87467
#	103986
#	122956
#	138976
#	160095
#	178996
#	199716
#
# Disc length: 2893 seconds
#
# Revision: 4
# Processed by: cddbd v1.5.2PL0 Copyright (c) Steve Scherf et al.
# Submitted via: EasyCDDAExtractor 15.3.0.1
#
DISCID=aa0b4b0c
DTITLE=Ednita Nazario - Sin Limite
DYEAR=2001
DGENRE=Latin
TTITLE0=Devuelveme
TTITLE1=Despues De La Lluvia
TTITLE2=Bajo Cero
TTITLE3=Vida
TTITLE4=Dime
TTITLE5=Lo Que Fue No Sera
TTITLE6=No Te Quiero Mas
TTITLE7=Cada Vez
TTITLE8=Porque Hablamos (Dueto Con Ricardo Arjona)
TTITLE9=Hielo Bajo El Sol
TTITLE10=Vida (Having The Time Of My Life) (Version Ingles)
TTITLE11=Toditas Mis Penas
EXTD=
EXTT0=
EXTT1=
EXTT2=
EXTT3=
EXTT4=
EXTT5=
EXTT6=
EXTT7=
EXTT8=
EXTT9=
EXTT10=
EXTT11=
PLAYORDER=
